<?xml version="1.0" standalone="no"?>
<!DOCTYPE svg PUBLIC "-//W3C//DTD SVG 20010904//EN"
 "http://www.w3.org/TR/2001/REC-SVG-20010904/DTD/svg10.dtd">
<svg version="1.0" xmlns="http://www.w3.org/2000/svg"
 width="800.000000pt" height="692.000000pt" viewBox="0 0 800.000000 692.000000"
 preserveAspectRatio="xMidYMid meet">
<metadata>
Created by potrace 1.15, written by Peter Selinger 2001-2017
</metadata>
<g transform="translate(0.000000,692.000000) scale(0.100000,-0.100000)"
fill="#000000" stroke="none">
<path d="M3555 6913 c-710 -33 -1146 -138 -1677 -404 -674 -338 -1095 -747
-1262 -1228 -115 -329 -109 -634 19 -961 20 -52 39 -104 42 -116 8 -36 -17
-103 -53 -144 -69 -76 -140 -77 -364 -5 -166 53 -224 60 -247 30 -23 -31 -13
-137 19 -207 40 -86 99 -116 238 -120 55 -2 68 -5 55 -13 -74 -44 -124 -100
-132 -149 -4 -28 0 -39 31 -74 20 -22 50 -45 66 -52 17 -7 30 -14 30 -17 0 -3
-61 -88 -135 -190 -80 -111 -134 -192 -131 -202 3 -9 7 -45 11 -81 4 -36 8
-72 11 -80 3 -13 32 -15 176 -16 139 -1 194 -5 278 -23 57 -12 106 -24 109
-26 2 -3 -10 -17 -26 -32 -53 -50 -68 -89 -67 -178 0 -93 19 -164 76 -288 l41
-88 -19 -117 c-23 -140 -25 -404 -5 -497 62 -282 151 -429 356 -590 172 -134
521 -352 795 -497 242 -128 440 -210 765 -314 345 -111 649 -184 910 -218 181
-24 653 -22 850 3 457 59 874 151 1260 278 471 154 745 315 1000 586 86 91
202 252 251 349 76 150 140 359 164 533 l12 90 101 124 c90 111 102 131 122
201 67 230 71 472 10 590 -14 27 -16 64 -16 228 1 112 -5 262 -14 347 -8 83
-15 150 -15 151 0 5 141 -18 185 -30 79 -23 107 -39 188 -102 38 -30 87 -59
109 -66 37 -11 45 -10 93 16 66 34 163 134 201 206 26 50 29 64 29 150 -1 82
-6 109 -37 201 -146 426 -367 669 -698 765 l-75 21 5 44 c10 90 5 375 -9 444
-30 156 -138 440 -226 595 -157 277 -388 471 -825 694 -581 296 -1101 437
-1755 476 -151 9 -659 11 -820 3z m650 -83 c265 -17 691 -79 978 -141 293 -64
510 -139 739 -255 356 -181 681 -434 854 -664 227 -301 356 -808 299 -1181
-59 -396 -361 -730 -850 -939 -378 -163 -948 -296 -1465 -342 -187 -17 -940
-16 -1190 0 -864 59 -1544 164 -1942 301 -504 174 -898 543 -998 936 -72 279
-6 663 162 950 174 298 513 596 990 871 488 282 819 368 1703 443 373 32 489
36 720 21z m3046 -2269 c218 -74 404 -261 545 -545 69 -138 83 -214 66 -356
-13 -109 -42 -212 -68 -241 -25 -28 -55 -24 -142 21 -96 50 -440 173 -587 210
-119 30 -318 65 -432 75 l-72 7 79 39 c106 53 221 162 305 288 70 106 177 321
220 444 15 42 29 77 30 77 1 0 26 -8 56 -19z m-6380 -553 c112 -145 253 -291
328 -339 l53 -34 -53 -47 c-70 -62 -193 -151 -261 -188 -68 -38 -103 -37 -177
1 l-59 31 -80 -16 c-104 -21 -118 -20 -168 9 -112 66 -123 173 -29 309 l43 64
-66 7 c-125 13 -187 40 -258 109 -67 65 -80 96 -41 96 12 0 85 -16 161 -36
116 -29 158 -36 246 -36 143 -1 184 7 220 43 31 31 55 99 47 130 -3 11 -4 19
-3 19 1 0 45 -55 97 -122z m5939 -410 c168 -28 307 -53 309 -55 3 -2 -36 -45
-86 -96 -151 -155 -214 -262 -221 -378 -5 -92 15 -171 76 -291 6 -12 -148 2
-200 19 -26 8 -62 13 -80 11 -54 -5 -60 -28 -54 -223 2 -93 7 -181 11 -195 6
-19 5 -22 -4 -14 -6 5 -34 73 -62 150 -97 266 -126 322 -160 309 -8 -3 -27
-23 -42 -45 -36 -51 -54 -51 -67 3 -28 111 -34 128 -55 151 -13 15 -54 34 -96
48 -61 19 -96 23 -205 23 -128 0 -131 -1 -179 -30 -58 -36 -99 -97 -117 -172
l-12 -52 -97 6 c-135 8 -159 2 -216 -58 -46 -48 -50 -51 -91 -46 -24 3 -66 16
-93 31 -28 14 -52 26 -54 26 -1 0 -6 -16 -9 -35 -20 -104 -147 -155 -255 -103
-121 59 -217 218 -296 493 -14 50 -28 97 -30 105 -4 13 20 15 178 16 209 1
341 17 632 75 521 104 949 231 1180 352 28 14 59 26 70 27 11 0 157 -23 325
-52z m-5198 -83 c491 -125 841 -186 1227 -214 73 -5 135 -12 138 -15 16 -15
-177 -406 -269 -547 -118 -180 -261 -330 -364 -379 -144 -70 -330 -44 -604 86
-171 82 -197 112 -280 329 -78 207 -107 326 -130 535 -13 121 -5 270 15 270 7
0 127 -29 267 -65z m-375 -135 c7 -15 13 -63 13 -114 0 -73 5 -101 26 -155 25
-61 37 -142 23 -155 -3 -3 -32 3 -64 14 -196 67 -555 110 -927 110 -117 0
-188 4 -188 10 0 8 145 175 224 258 l22 23 75 -46 c41 -25 104 -55 141 -66 75
-23 86 -20 162 40 21 17 49 31 60 31 12 0 46 -20 74 -44 86 -73 95 -72 207 34
103 97 128 107 152 60z m5910 -314 l19 -269 -51 -63 c-27 -35 -54 -63 -60 -63
-15 -1 -52 57 -79 126 -31 75 -66 243 -66 314 l0 54 103 103 c83 84 103 99
109 85 4 -10 15 -139 25 -287z m-3864 173 c158 -11 703 -7 932 7 l100 6 89
-309 c75 -264 88 -321 89 -386 1 -166 -58 -188 -186 -68 -27 25 -78 81 -113
124 -39 49 -66 74 -69 65 -3 -7 -23 -70 -45 -140 -103 -323 -171 -414 -244
-328 -38 46 -49 101 -43 214 l6 99 -37 -7 c-67 -11 -277 -19 -325 -12 -25 4
-56 15 -68 25 -31 25 -20 72 31 136 90 115 97 108 -58 55 -321 -111 -521 -124
-530 -33 -6 62 66 234 201 481 49 89 53 93 79 88 16 -3 102 -11 191 -17z
m-2903 -204 c288 -13 611 -52 800 -97 69 -17 158 -45 161 -52 2 -5 26 -161 25
-163 0 0 -68 18 -151 42 -265 76 -686 155 -965 180 -121 11 -127 13 -134 43
-4 15 -9 35 -12 45 -6 18 -1 18 68 13 40 -3 134 -8 208 -11z m5623 -171 c34
-9 70 -20 81 -26 18 -10 16 -12 -20 -31 -192 -97 -331 -388 -399 -832 -9 -60
-19 -116 -21 -124 -3 -9 -20 1 -53 32 -68 64 -141 109 -325 200 -147 73 -489
223 -633 278 -35 13 -63 29 -63 35 0 19 48 64 85 80 46 19 81 18 157 -6 80
-25 105 -25 147 1 41 25 65 51 91 101 l20 38 42 -30 c47 -35 109 -54 141 -44
12 3 54 37 93 75 58 56 78 69 104 69 41 0 80 -23 110 -66 26 -40 32 -37 49 26
56 196 196 275 394 224z m-5095 -84 c183 -24 522 -124 522 -153 0 -28 52 -119
90 -161 54 -58 118 -99 225 -143 140 -56 305 -95 415 -97 90 -1 99 1 170 35
93 45 179 109 279 209 l77 77 154 6 c141 6 220 18 416 64 21 5 22 2 17 -59 -5
-61 -4 -67 23 -97 51 -56 186 -62 379 -17 33 8 61 14 62 13 1 -2 -7 -74 -18
-162 -17 -141 -22 -162 -42 -177 -31 -25 -240 -112 -340 -143 -126 -38 -245
-62 -505 -101 -510 -77 -713 -56 -1034 108 -282 143 -621 403 -923 708 -98 98
-107 110 -80 106 17 -3 67 -10 113 -16z m5295 -93 c42 -88 82 -136 99 -119 4
4 16 34 26 67 11 38 23 60 32 60 22 0 74 -114 114 -251 20 -67 36 -124 36
-127 0 -18 -408 -226 -570 -290 -161 -64 -154 -64 -151 8 8 193 81 411 187
561 34 49 167 184 180 184 1 0 23 -42 47 -93z m-5401 -62 c238 -247 437 -405
743 -590 245 -148 507 -256 705 -291 123 -21 405 -14 602 16 454 68 784 158
1110 301 l87 38 173 -83 c455 -220 790 -318 1036 -303 l97 6 159 -85 c87 -47
162 -82 166 -77 4 4 26 58 48 118 22 61 43 118 47 127 4 9 47 33 96 53 252
100 510 226 674 327 154 96 491 334 560 396 38 34 76 61 85 60 36 -8 2 -294
-54 -459 -37 -108 -341 -428 -566 -596 -206 -154 -535 -354 -880 -536 -379
-200 -759 -325 -1087 -358 -163 -17 -646 -5 -868 20 -326 38 -587 82 -900 153
-523 117 -806 246 -1450 657 -205 132 -282 189 -344 257 -58 63 -162 213 -227
326 -93 159 -201 448 -211 559 -5 59 -3 69 16 88 11 11 26 21 32 21 6 0 74
-65 151 -145z m6086 64 c18 -6 41 -26 54 -47 l22 -35 -44 -39 c-43 -39 -228
-148 -249 -148 -6 0 -25 21 -41 47 -65 102 -27 164 130 214 65 21 87 23 128 8z
m-2601 -325 l88 -125 250 -123 c138 -68 332 -160 433 -206 100 -45 181 -84
180 -86 -5 -5 -262 36 -387 62 -327 67 -588 179 -727 311 l-55 53 63 120 c35
66 64 120 65 120 1 0 42 -57 90 -126z m543 -127 c332 -136 404 -173 697 -360
l113 -72 -7 -55 c-11 -96 -10 -96 -78 -47 -271 194 -565 350 -900 478 -77 29
-144 56 -148 60 -5 3 -1 31 8 62 15 51 18 55 38 47 12 -4 137 -55 277 -113z
m-3923 -417 c332 -362 876 -737 1323 -913 368 -146 881 -247 1530 -304 282
-24 872 -24 1070 0 402 49 725 171 1205 452 368 216 596 394 814 640 l63 70
-6 -91 c-13 -208 -111 -397 -328 -628 -187 -201 -403 -362 -658 -490 -454
-230 -863 -333 -1660 -418 -160 -17 -727 -17 -850 0 -374 53 -862 188 -1290
356 -649 257 -1127 622 -1319 1011 -70 141 -92 224 -98 377 -3 69 -3 138 1
152 6 25 9 23 65 -51 33 -43 94 -116 138 -163z"/>
<path d="M4822 6638 c-18 -18 -15 -75 4 -82 42 -16 172 13 181 41 2 5 -14 19
-36 31 -43 24 -129 30 -149 10z"/>
<path d="M3436 6614 c-11 -10 -14 -24 -10 -42 9 -39 45 -110 65 -128 16 -14
18 -14 30 8 19 34 15 135 -7 159 -21 23 -57 25 -78 3z"/>
<path d="M3970 6598 c-25 -27 -25 -40 -2 -61 23 -21 57 -33 120 -42 43 -6 52
-4 52 9 0 21 -56 84 -91 102 -38 19 -55 18 -79 -8z"/>
<path d="M2880 6543 c0 -42 28 -111 52 -131 18 -15 61 -7 79 14 17 21 -5 66
-57 114 -56 51 -74 52 -74 3z"/>
<path d="M5205 6554 c-13 -14 -16 -27 -11 -60 6 -50 35 -116 53 -121 32 -11
66 148 38 176 -21 20 -62 23 -80 5z"/>
<path d="M5622 6379 c5 -49 28 -92 59 -112 21 -13 68 -1 76 20 9 24 -26 80
-71 113 -59 44 -70 40 -64 -21z"/>
<path d="M4401 6357 c-30 -7 -56 -17 -58 -24 -6 -19 67 -61 118 -68 41 -6 48
-4 63 16 26 38 21 65 -15 78 -37 13 -37 13 -108 -2z"/>
<path d="M2484 6315 c-9 -14 -14 -32 -10 -40 8 -22 60 -42 129 -50 67 -9 74 3
31 55 -53 62 -122 78 -150 35z"/>
<path d="M1880 6210 c-26 -26 -25 -42 3 -68 26 -25 136 -77 144 -68 13 12 -19
87 -51 121 -38 40 -67 44 -96 15z"/>
<path d="M2957 6113 c-26 -25 28 -178 62 -178 34 0 48 134 18 173 -10 13 -69
17 -80 5z"/>
<path d="M4936 6068 c11 -60 64 -128 98 -128 29 1 56 23 56 47 0 34 -100 113
-144 113 -12 0 -14 -7 -10 -32z"/>
<path d="M5902 6044 c-17 -12 -22 -24 -20 -47 4 -45 47 -56 133 -32 36 9 65
21 65 25 0 4 -8 14 -17 22 -48 41 -126 57 -161 32z"/>
<path d="M3830 5993 c-30 -52 -45 -139 -30 -191 9 -36 16 -43 50 -53 31 -9 46
-9 66 0 25 11 26 14 22 84 -3 54 -11 87 -33 132 -17 32 -35 61 -41 63 -6 1
-21 -14 -34 -35z m67 -64 c29 -69 28 -162 0 -167 -60 -12 -95 40 -83 122 8 49
36 107 51 103 5 -2 20 -28 32 -58z"/>
<path d="M2445 5854 c-38 -20 -73 -52 -80 -75 -8 -23 22 -69 44 -69 33 0 111
106 111 151 0 14 -42 10 -75 -7z"/>
<path d="M3343 5838 c-47 -22 -20 -90 56 -142 50 -35 65 -28 56 28 -8 48 -20
72 -48 104 -23 24 -31 26 -64 10z"/>
<path d="M1504 5779 c-3 -6 -7 -39 -8 -72 -1 -51 5 -73 29 -122 27 -54 34 -60
64 -63 124 -12 121 89 -7 211 -65 61 -67 63 -78 46z m119 -116 c19 -27 30 -55
31 -79 1 -33 -2 -38 -28 -45 -40 -11 -60 2 -85 56 -20 43 -29 134 -14 148 10
10 61 -33 96 -80z"/>
<path d="M2094 5620 c-26 -10 -94 -74 -94 -88 0 -6 11 -24 24 -39 24 -27 26
-27 53 -13 29 16 82 101 83 133 0 19 -29 22 -66 7z"/>
<path d="M965 5558 c-24 -79 -27 -97 -21 -150 9 -94 27 -118 88 -118 59 0 68
7 68 56 0 56 -17 98 -70 168 -41 56 -57 67 -65 44z m53 -55 c38 -55 62 -113
62 -152 0 -33 -4 -40 -26 -45 -54 -14 -80 16 -91 105 -5 46 11 119 27 119 5 0
17 -12 28 -27z"/>
<path d="M6048 5474 c-65 -20 -150 -99 -150 -138 0 -29 26 -72 55 -90 26 -17
86 39 129 120 41 79 50 118 28 120 -8 1 -36 -4 -62 -12z m46 -22 c3 -5 -7 -35
-23 -68 -31 -65 -92 -127 -116 -117 -24 9 -44 55 -35 79 11 29 88 93 125 103
40 12 43 12 49 3z"/>
<path d="M4238 5463 c-61 -18 -158 -104 -158 -139 0 -30 25 -71 52 -85 16 -8
28 -5 58 15 61 40 148 231 103 225 -4 -1 -29 -8 -55 -16z m14 -96 c-19 -41
-43 -74 -66 -92 l-37 -28 -24 23 c-42 39 -33 68 37 129 32 28 100 53 112 41 5
-5 -4 -36 -22 -73z"/>
<path d="M2710 5418 c0 -60 26 -121 53 -126 38 -7 67 7 67 34 0 34 -15 61 -58
107 -50 51 -62 49 -62 -15z"/>
<path d="M4984 5238 c-48 -23 -58 -98 -17 -125 47 -31 263 -13 263 22 0 21
-70 74 -120 89 -69 22 -103 26 -126 14z m131 -37 c22 -10 48 -28 59 -39 18
-21 18 -22 -10 -33 -34 -14 -137 -17 -176 -6 -23 6 -28 13 -28 40 0 18 5 38
12 45 18 18 97 14 143 -7z"/>
<path d="M3482 5073 c-13 -3 -43 -24 -67 -47 -48 -45 -51 -69 -14 -102 19 -17
21 -17 47 3 29 21 81 108 82 136 0 17 -5 18 -48 10z"/>
<path d="M1964 4961 c-54 -18 -127 -70 -144 -101 -6 -10 -10 -30 -10 -44 0
-28 44 -86 66 -86 45 0 148 145 156 220 4 30 -7 32 -68 11z m17 -89 c-30 -59
-59 -94 -92 -112 -23 -13 -59 23 -59 60 0 22 11 38 45 67 46 39 113 67 128 53
5 -4 -5 -35 -22 -68z"/>
<path d="M789 4931 c-39 -39 -37 -63 9 -100 63 -53 222 -102 222 -70 -1 27
-42 105 -73 137 -65 68 -113 78 -158 33z m130 -38 c46 -45 72 -95 57 -110 -12
-12 -100 17 -140 45 -59 41 -65 56 -36 87 35 37 63 32 119 -22z"/>
<path d="M5805 4871 c-3 -6 6 -35 22 -63 30 -57 119 -128 159 -128 23 0 84 61
84 85 0 23 -69 72 -123 88 -77 23 -134 30 -142 18z m184 -57 c27 -14 53 -34
56 -42 8 -21 -26 -66 -52 -70 -31 -5 -115 58 -142 107 l-24 44 56 -6 c33 -3
77 -17 106 -33z"/>
<path d="M3196 4612 c-13 -21 32 -109 82 -159 64 -64 94 -69 141 -22 35 35 37
46 16 77 -34 47 -223 130 -239 104z m143 -60 c30 -15 63 -39 74 -54 l21 -28
-24 -25 c-32 -34 -59 -31 -110 12 -41 35 -70 84 -70 119 0 21 35 13 109 -24z"/>
<path d="M4532 4497 c-19 -23 -33 -69 -26 -89 13 -43 106 -59 218 -36 74 14
80 31 30 74 -62 53 -195 84 -222 51z m130 -23 c54 -18 97 -59 81 -75 -6 -6
-46 -13 -89 -15 -115 -7 -158 23 -120 81 20 30 60 33 128 9z"/>
<path d="M1310 4316 c-56 -21 -135 -63 -149 -80 -11 -13 -7 -18 26 -34 21 -11
53 -23 72 -27 50 -11 139 3 162 26 24 24 26 91 3 113 -18 19 -66 20 -114 2z
m94 -12 c11 -4 16 -19 16 -45 0 -46 -17 -58 -93 -66 -54 -5 -127 15 -127 36 0
15 45 42 104 63 55 19 76 21 100 12z"/>
<path d="M5636 4314 c-20 -19 -20 -64 -2 -107 20 -49 105 -159 119 -154 14 4
35 70 36 113 1 41 -26 129 -45 149 -20 20 -88 20 -108 -1z m109 -38 c23 -54
28 -111 15 -150 -6 -20 -15 -36 -20 -36 -25 0 -99 135 -100 182 0 30 10 36 58
37 28 1 35 -4 47 -33z"/>
<path d="M2934 4121 c-56 -19 -124 -69 -144 -106 -7 -13 -10 -35 -6 -50 7 -28
48 -75 66 -75 6 0 30 18 54 40 64 59 130 213 89 209 -4 0 -31 -8 -59 -18z m15
-98 c-22 -44 -46 -76 -68 -91 l-34 -22 -24 22 c-39 37 -29 76 33 123 45 34
105 57 118 45 6 -6 -5 -37 -25 -77z"/>
<path d="M1986 3929 c-59 -46 -54 -97 12 -125 66 -28 232 -31 232 -5 0 23 -94
111 -133 125 -76 27 -83 27 -111 5z m99 -23 c47 -21 105 -75 105 -97 0 -12
-106 -11 -153 2 -73 20 -93 69 -44 104 28 20 33 19 92 -9z"/>
<path d="M6280 3446 c0 -3 15 -13 33 -22 17 -9 56 -34 86 -56 49 -37 59 -52
121 -182 45 -94 82 -157 113 -191 25 -27 48 -47 52 -44 3 4 -31 79 -75 168
-92 181 -140 242 -227 288 -61 32 -103 48 -103 39z"/>
<path d="M5016 3106 c-9 -88 -21 -110 -97 -176 -121 -105 -121 -106 -21 -42
103 65 101 65 215 15 55 -24 102 -42 104 -40 2 2 -19 16 -47 31 -101 55 -129
98 -131 203 -1 75 -15 81 -23 9z"/>
<path d="M3786 3033 c-12 -60 -16 -108 -12 -137 11 -68 -10 -98 -114 -164
-126 -81 -133 -87 -60 -48 93 49 156 69 180 56 19 -10 39 -64 58 -160 9 -45 9
-44 9 22 -1 95 41 146 150 188 48 18 48 18 18 25 -118 24 -180 105 -204 265
l-7 45 -18 -92z"/>
<path d="M2610 1531 c20 -12 286 -74 445 -105 702 -135 960 -142 1653 -45 360
50 556 90 549 112 -9 29 -100 40 -352 41 -211 0 -286 -4 -485 -27 -581 -67
-653 -67 -1379 -2 -408 37 -456 40 -431 26z"/>
</g>
</svg>
