<?xml version="1.0" standalone="no"?>
<!DOCTYPE svg PUBLIC "-//W3C//DTD SVG 20010904//EN"
 "http://www.w3.org/TR/2001/REC-SVG-20010904/DTD/svg10.dtd">
<svg version="1.0" xmlns="http://www.w3.org/2000/svg"
 width="512.000000pt" height="512.000000pt" viewBox="0 0 512.000000 512.000000"
 preserveAspectRatio="xMidYMid meet">
<metadata>
Created by potrace 1.15, written by Peter Selinger 2001-2017
</metadata>
<g transform="translate(0.000000,512.000000) scale(0.100000,-0.100000)"
fill="#000000" stroke="none">
<path d="M1925 4400 l-79 -79 -500 -3 -501 -3 -52 -24 c-63 -28 -114 -82 -136
-142 -13 -35 -24 -210 -57 -899 -36 -763 -43 -869 -65 -980 -57 -294 -58 -309
-52 -675 11 -624 44 -810 157 -891 25 -18 56 -44 70 -59 122 -128 129 -134
181 -149 47 -14 246 -16 1829 -16 1555 0 1783 2 1827 15 67 20 143 89 171 154
43 98 66 312 78 724 l7 227 -82 0 -81 0 0 178 c0 176 -16 307 -64 538 -10 47
-28 355 -56 930 -33 691 -44 868 -57 903 -22 60 -73 114 -136 142 l-52 24
-501 3 -500 3 -79 79 -80 80 -555 0 -555 0 -80 -80z m-5 -200 l0 -40 720 0
720 0 0 40 0 41 448 -3 448 -3 49 -26 c34 -17 57 -37 72 -65 21 -37 23 -73 57
-799 20 -418 39 -802 42 -852 l6 -93 -1001 0 -1001 0 0 84 c0 47 -3 87 -7 89
-5 3 -23 8 -40 12 l-33 7 0 -96 0 -96 -881 0 -881 0 6 93 c3 50 22 434 42 852
38 822 36 804 96 847 64 45 84 47 626 47 l512 1 0 -40z m480 -2160 l0 -280
-921 0 -921 0 4 123 c3 71 17 188 34 280 l28 157 888 0 888 0 0 -280z m2124
123 c17 -92 31 -210 34 -280 l4 -123 -1041 0 -1041 0 0 280 0 280 1008 0 1007
0 29 -157z m36 -523 l0 -40 -1961 0 -1962 0 7 -227 c7 -238 21 -461 35 -551 8
-52 8 -52 -12 -35 -35 31 -56 96 -72 219 -17 136 -35 421 -35 572 l0 102 2000
0 2000 0 0 -40z m-320 -240 l0 -120 -1680 0 -1680 0 0 120 0 120 1680 0 1680
0 0 -120z"/>
<path d="M2415 4065 c-269 -59 -463 -239 -547 -505 -33 -108 -33 -292 0 -400
64 -203 189 -354 367 -443 121 -61 173 -72 330 -72 126 1 148 3 219 28 232 81
400 256 473 492 25 85 25 305 0 390 -82 265 -286 453 -557 511 -80 17 -206 17
-285 -1z m342 -100 c198 -67 340 -209 409 -410 24 -69 28 -96 28 -195 0 -99
-4 -126 -28 -195 -69 -202 -209 -342 -411 -411 -69 -24 -96 -28 -195 -28 -99
0 -126 4 -195 28 -257 88 -423 304 -441 573 -20 303 196 590 496 658 95 22
238 13 337 -20z"/>
<path d="M2413 3820 c-130 -43 -253 -158 -304 -287 -20 -49 -23 -76 -23 -173
0 -97 3 -124 22 -172 49 -123 158 -231 281 -280 81 -32 261 -32 343 0 120 48
232 159 279 280 33 83 33 261 1 344 -48 121 -160 233 -280 279 -83 32 -234 36
-319 9z m337 -115 c77 -40 151 -130 184 -222 13 -38 13 -44 -5 -77 -43 -80
-113 -121 -209 -121 -96 0 -157 35 -210 120 -21 33 -25 53 -25 115 0 62 4 82
25 115 31 50 66 84 104 100 32 14 67 6 136 -30z"/>
<path d="M3545 4055 l-25 -24 0 -351 0 -351 25 -24 24 -25 351 0 351 0 24 25
25 24 0 351 0 351 -25 24 -24 25 -351 0 -351 0 -24 -25z m255 -77 c-35 -14
-72 -39 -106 -72 -33 -34 -58 -71 -72 -106 l-21 -55 0 128 -1 127 128 -1 127
0 -55 -21z m439 -105 l0 -128 -21 55 c-14 35 -39 72 -72 106 -34 33 -71 58
-106 72 l-55 21 128 0 127 1 -1 -127z m-232 25 c53 -23 92 -60 118 -111 34
-68 32 -87 -14 -138 l-39 -44 -72 0 c-71 0 -72 0 -110 41 -67 72 -67 162 1
226 42 40 69 46 116 26z m-313 -444 c34 -33 71 -58 106 -72 l55 -21 -127 0
-128 -1 1 128 0 127 21 -55 c14 -35 39 -72 72 -106z m546 31 l0 -125 -127 1
-128 0 55 21 c73 28 152 107 176 176 10 29 20 52 21 52 2 0 3 -56 3 -125z"/>
<path d="M825 3655 c-24 -23 -25 -31 -25 -135 0 -104 1 -112 25 -135 l24 -25
391 0 391 0 24 25 c24 23 25 31 25 135 0 104 -1 112 -25 135 l-24 25 -391 0
-391 0 -24 -25z"/>
<path d="M1173 3182 c-137 -49 -221 -177 -211 -322 8 -102 42 -164 145 -256
110 -97 154 -118 253 -118 92 0 148 23 219 89 67 63 95 128 95 225 0 100 -23
148 -120 256 -96 104 -152 135 -257 141 -52 3 -86 -1 -124 -15z"/>
<path d="M3626 3184 c-65 -20 -146 -101 -169 -168 -40 -118 -15 -207 90 -316
101 -106 155 -134 253 -135 65 0 82 4 130 31 67 38 115 97 136 171 33 114 -3
208 -125 325 -63 61 -91 80 -132 92 -65 20 -119 19 -183 0z"/>
</g>
</svg>
