<?xml version="1.0" standalone="no"?>
<!DOCTYPE svg PUBLIC "-//W3C//DTD SVG 20010904//EN"
 "http://www.w3.org/TR/2001/REC-SVG-20010904/DTD/svg10.dtd">
<svg version="1.0" xmlns="http://www.w3.org/2000/svg"
 width="249.000000pt" height="203.000000pt" viewBox="0 0 249.000000 203.000000"
 preserveAspectRatio="xMidYMid meet">
<metadata>
Created by potrace 1.15, written by Peter Selinger 2001-2017
</metadata>
<g transform="translate(0.000000,203.000000) scale(0.100000,-0.100000)"
fill="#000000" stroke="none">
<path d="M0 1015 l0 -1015 249 0 c214 0 250 2 262 16 7 8 31 25 53 37 41 22
47 22 646 25 333 2 619 0 637 -3 17 -3 54 -21 82 -40 46 -32 56 -35 125 -35
53 0 77 4 86 15 18 22 248 22 256 0 4 -10 20 -15 50 -15 l44 0 0 1015 0 1015
-246 0 -246 0 -31 -32 c-71 -70 -42 -68 -740 -68 -693 0 -671 -2 -723 64 l-29
36 -237 0 -238 0 0 -1015z m2390 945 c17 -17 20 -33 20 -99 0 -109 -3 -111
-140 -111 -141 0 -142 1 -138 124 l3 91 105 6 c58 3 111 6 118 7 6 1 21 -7 32
-18z m-2043 -23 c4 -5 10 -47 12 -93 5 -120 1 -124 -144 -124 -73 0 -115 4
-123 12 -8 8 -12 46 -12 105 0 88 1 94 23 103 26 12 232 8 244 -3z m1536 -333
c54 -18 101 -67 116 -121 15 -54 15 -910 0 -970 -15 -59 -70 -117 -126 -132
-30 -8 -225 -11 -666 -9 l-623 3 -41 27 c-24 16 -49 44 -62 70 -21 43 -21 56
-21 527 0 480 0 484 22 523 23 40 66 73 116 88 15 5 300 9 633 9 528 1 611 -1
652 -15z m511 -50 c12 -11 16 -36 16 -90 0 -115 1 -114 -138 -114 -79 0 -122
4 -130 12 -13 13 -17 189 -5 201 3 4 59 7 124 7 94 0 121 -3 133 -16z m-2047
-30 c16 -22 17 -157 3 -185 -10 -17 -22 -19 -134 -19 -104 0 -125 3 -130 16
-3 9 -6 56 -6 105 0 89 0 89 28 95 15 3 32 8 37 10 6 2 50 2 100 -1 70 -3 92
-8 102 -21z m2044 -350 c15 -13 19 -31 19 -79 0 -35 -3 -77 -6 -94 l-6 -31
-117 0 c-64 0 -123 5 -131 10 -11 7 -16 33 -18 104 -4 108 -10 102 93 110 81
6 146 -2 166 -20z m-2044 -27 c11 -11 11 -193 0 -204 -14 -13 -222 -16 -246
-4 -19 11 -21 21 -21 104 0 61 4 97 13 106 14 14 239 12 254 -2z m2053 -357
c5 -8 10 -51 10 -94 0 -112 -5 -116 -137 -116 -143 0 -143 0 -143 108 0 48 4
92 8 98 13 20 36 23 145 21 83 -2 110 -5 117 -17z m-2054 -35 c9 -12 14 -46
14 -94 0 -107 -5 -111 -145 -111 -84 0 -115 4 -124 14 -8 9 -11 47 -9 107 3
90 4 93 28 101 14 4 69 6 124 5 83 -2 100 -6 112 -22z m2048 -351 c12 -11 16
-36 16 -90 0 -115 1 -114 -138 -114 -79 0 -122 4 -130 12 -13 13 -17 189 -5
201 3 4 59 7 124 7 94 0 121 -3 133 -16z m-2047 -30 c17 -23 18 -164 0 -187
-11 -15 -28 -17 -137 -15 l-125 3 -3 102 -3 102 28 7 c15 3 33 8 38 10 6 2 50
2 99 0 72 -3 92 -7 103 -22z"/>
</g>
</svg>
