<?xml version="1.0" standalone="no"?>
<!DOCTYPE svg PUBLIC "-//W3C//DTD SVG 20010904//EN"
 "http://www.w3.org/TR/2001/REC-SVG-20010904/DTD/svg10.dtd">
<svg version="1.0" xmlns="http://www.w3.org/2000/svg"
 width="180.000000pt" height="349.000000pt" viewBox="0 0 180.000000 349.000000"
 preserveAspectRatio="xMidYMid meet">
<metadata>
Created by potrace 1.15, written by Peter Selinger 2001-2017
</metadata>
<g transform="translate(0.000000,349.000000) scale(0.100000,-0.100000)"
fill="#000000" stroke="none">
<path d="M690 3470 c-24 -12 -46 -37 -64 -70 -24 -45 -33 -84 -62 -293 -18
-133 -34 -255 -34 -272 0 -19 -11 -40 -32 -63 -33 -33 -33 -34 -36 -145 l-4
-112 -56 -34 c-79 -49 -204 -172 -261 -256 -56 -84 -104 -195 -127 -292 -12
-51 -15 -103 -12 -208 4 -124 8 -150 35 -230 55 -159 144 -290 274 -401 35
-29 83 -64 106 -76 l43 -23 0 -110 c0 -112 8 -140 48 -170 9 -7 18 -61 27
-165 39 -416 39 -417 64 -476 30 -66 57 -74 271 -74 196 0 212 3 261 57 43 46
59 89 70 181 5 48 13 110 19 137 5 28 17 112 26 188 15 128 19 140 45 167 28
28 29 31 29 138 l0 109 82 53 c191 125 322 303 378 516 28 110 28 309 -1 420
-55 210 -210 415 -396 524 l-58 34 0 101 c0 79 -4 107 -17 128 -10 14 -18 43
-18 64 0 80 -31 304 -62 448 -30 141 -34 152 -69 188 l-37 37 -198 0 c-175 -1
-203 -3 -234 -20z m-78 -742 c4 -42 11 -57 37 -80 26 -24 40 -28 89 -29 l57 0
-85 -18 c-47 -10 -114 -30 -149 -45 -36 -14 -66 -26 -68 -26 -2 0 -3 45 -3
100 0 94 2 103 25 125 16 17 35 25 58 25 34 0 34 0 39 -52z m643 46 c31 -12
45 -59 45 -152 l0 -90 -62 25 c-34 14 -101 34 -148 44 l-85 18 67 0 c37 1 79
6 93 13 34 15 55 56 55 108 0 40 5 45 35 34z m-168 -193 c344 -71 611 -335
679 -670 20 -101 15 -271 -11 -366 -48 -182 -186 -373 -348 -484 -67 -45 -199
-105 -277 -126 -89 -23 -281 -31 -376 -16 -479 78 -803 519 -720 981 40 222
181 429 379 558 103 66 199 102 362 136 57 11 228 4 312 -13z m-542 -1622
c102 -45 177 -61 316 -66 150 -6 248 8 366 53 36 13 67 24 69 24 2 0 4 -41 4
-90 0 -126 -19 -160 -90 -160 -29 0 -40 18 -40 68 0 13 -13 37 -29 53 l-29 29
-242 0 -242 0 -27 -28 c-19 -19 -30 -43 -35 -75 -8 -53 -17 -57 -51 -22 -23
23 -25 31 -25 130 0 58 2 105 4 105 2 0 25 -10 51 -21z"/>
<path d="M770 2534 c-79 -16 -180 -49 -243 -80 -292 -146 -461 -426 -444 -738
6 -122 25 -196 77 -301 204 -409 719 -566 1142 -349 170 88 322 264 382 444
75 226 47 453 -81 654 -110 172 -283 298 -483 351 -64 16 -296 29 -350 19z
m358 -43 c277 -80 498 -309 557 -576 26 -114 17 -283 -19 -390 -89 -263 -311
-458 -591 -520 -58 -13 -108 -16 -208 -13 -115 4 -144 9 -223 36 -486 165
-688 690 -433 1119 45 75 159 191 237 241 79 51 186 96 277 116 99 22 304 15
403 -13z"/>
<path d="M785 2461 c-290 -47 -523 -242 -605 -506 -30 -96 -37 -238 -16 -335
9 -42 36 -116 62 -170 62 -126 178 -245 299 -307 141 -73 208 -88 380 -88 138
1 157 3 230 29 144 50 262 129 352 237 53 65 117 191 138 274 21 80 21 252 0
330 -66 250 -274 452 -534 520 -73 19 -235 27 -306 16z m245 -15 c187 -34 345
-128 456 -269 110 -140 148 -260 142 -442 -7 -195 -62 -318 -203 -460 -97 -98
-215 -163 -351 -196 -130 -31 -295 -24 -417 18 -122 43 -188 85 -287 183 -144
142 -204 285 -203 485 0 91 5 124 26 190 114 348 471 557 837 491z"/>
<path d="M1428 2077 c-38 -23 -66 -47 -64 -53 5 -13 -416 -217 -440 -212 -17
3 -19 16 -22 146 -3 186 -22 181 -22 -7 0 -88 -4 -141 -11 -148 -7 -7 -9 -23
-5 -38 6 -22 11 -26 39 -23 23 2 33 9 35 24 2 15 52 45 211 127 114 59 216
107 226 107 10 0 48 19 86 42 58 36 66 44 58 60 -5 10 -13 18 -17 18 -4 -1
-37 -20 -74 -43z"/>
</g>
</svg>
